# xmcd
#
# Track frame offsets:
#	150
#	20004
#	32022
#	47575
#	62149
#	96462
#	113975
#	128553
#	143447
#	159096
#	182257
#	197762
#	220281
#	232213
#	243170
#
# Disc length: 3503 seconds
#
# Revision: 0
# Processed by: cddbd v1.5.2PL0 Copyright (c) Steve Scherf et al.
# Submitted via: EasyCDDAExtractor 2011.3.0.0
#
DISCID=c80dad0f
DTITLE=B.B. King - Talent
DYEAR=2012
DGENRE=Blues
TTITLE0=Sinner´s Prayer (feat. Ray Charles)
TTITLE1=Paying the cost to the boss
TTITLE2=How blue can you get?
TTITLE3=King´s Shuffle
TTITLE4=I got some outside help (I don´t really need)
TTITLE5=That Evil Child
TTITLE6=MR. Pawnbroker
TTITLE7=B.B. ´S Boggie
TTITLE8=Stormy Blues
TTITLE9=Sweet Little Angel
TTITLE10=Walking and crying
TTITLE11=The Thrill is gone
TTITLE12=Help the poor
TTITLE13=Catfish blues
TTITLE14=Ain´t nobody´s business
EXTD=
EXTT0=
EXTT1=
EXTT2=
EXTT3=
EXTT4=
EXTT5=
EXTT6=
EXTT7=
EXTT8=
EXTT9=
EXTT10=
EXTT11=
EXTT12=
EXTT13=
EXTT14=
PLAYORDER=
